<?xml version="1.0" encoding="utf-8"?>
<!-- Generator: Adobe Illustrator 24.3.0, SVG Export Plug-In . SVG Version: 6.00 Build 0)  -->
<svg version="1.1" xmlns="http://www.w3.org/2000/svg" xmlns:xlink="http://www.w3.org/1999/xlink" x="0px" y="0px"
	 viewBox="0 0 500 500" style="enable-background:new 0 0 500 500;" xml:space="preserve">
<style type="text/css">
	.st0{fill:url(#SVGID_1_);}
	.st1{fill:url(#SVGID_2_);}
	.st2{fill:url(#SVGID_3_);}
	.st3{fill:url(#SVGID_4_);}
	.st4{fill:url(#SVGID_5_);}
	.st5{fill:url(#SVGID_6_);}
	.st6{fill:url(#SVGID_7_);}
	.st7{fill:url(#SVGID_8_);}
	.st8{fill:url(#SVGID_9_);}
	.st9{fill:url(#SVGID_10_);}
	.st10{fill:url(#SVGID_11_);}
	.st11{fill:url(#SVGID_12_);}
</style>
<g id="OBJECTS">
	<g>
		<g>
			<g>
				<g>
					
						<linearGradient id="SVGID_1_" gradientUnits="userSpaceOnUse" x1="272.2534" y1="287.8141" x2="256.3216" y2="356.9728" gradientTransform="matrix(0.9995 -3.088283e-02 3.088283e-02 0.9995 -7.1764 7.8878)">
						<stop  offset="0" style="stop-color:#00EEF4"/>
						<stop  offset="1" style="stop-color:#5C35D8"/>
					</linearGradient>
					<path class="st0" d="M268.9,370.8c0,0,26.1-0.4,49.1-53.2c6.8-15.7,8.9-30.4-1-31.8c-19.8-3-22.5,72.5-86.4,55.9
						c-45.1,4.6-4.5,18-1.3,18.9c3.2,0.9,24.5,17.5,24.5,17.5L268.9,370.8z"/>
					
						<linearGradient id="SVGID_2_" gradientUnits="userSpaceOnUse" x1="216.6416" y1="259.4562" x2="201.7123" y2="324.2628" gradientTransform="matrix(0.9958 -9.113586e-02 9.113586e-02 0.9958 -20.6229 24.214)">
						<stop  offset="0" style="stop-color:#00DDF4"/>
						<stop  offset="1" style="stop-color:#354CD8"/>
					</linearGradient>
					<path class="st1" d="M219.8,340.9c0,0,26-2,45.8-56.1c5.9-16.1,5.1-24.6-4.8-25.4c-20-1.8-16.1,67.4-80.9,54.7
						c-44.7,7.3-3.5,18.2-0.2,18.9c3.3,0.7,25.5,16,25.5,16L219.8,340.9z"/>
					
						<linearGradient id="SVGID_3_" gradientUnits="userSpaceOnUse" x1="309.4904" y1="311.2875" x2="295.4829" y2="372.0923" gradientTransform="matrix(0.9922 0.1243 -0.1243 0.9922 31.9948 -30.1837)">
						<stop  offset="0" style="stop-color:#00E9F4"/>
						<stop  offset="1" style="stop-color:#5435D8"/>
					</linearGradient>
					<path class="st2" d="M297.5,372.9c0,0,17.4,5.9,37.5-19.2c10.7-13.3,13.5-28.6,4-31.6c-19.1-6-38,45.9-83.3,43.5
						s-18,15.4-15,16.8c3,1.3,37.6,4.4,37.6,4.4L297.5,372.9z"/>
					<linearGradient id="SVGID_4_" gradientUnits="userSpaceOnUse" x1="157.3711" y1="339.6334" x2="337.8796" y2="412.9799">
						<stop  offset="0" style="stop-color:#4C35D8"/>
						<stop  offset="1" style="stop-color:#00F4E8"/>
					</linearGradient>
					<path class="st3" d="M232,342c0,0,5.7,18.3,37.1,27.8c31.3,9.5,56.1-18,74.3-12.5c18.1,5.5-1.4,36.2-42.8,46.7
						s-95.7-5.7-129.4-32.2c-29.4-23.1-64.7-26.8-58.3,4.2c-19.3,5.5-25.7-25.8-25.7-27.3s0-21,0-21l27.7-14.8l39.6,6.2l50.1,16.6
						L232,342z"/>
				</g>
				<linearGradient id="SVGID_5_" gradientUnits="userSpaceOnUse" x1="45.6154" y1="309.5331" x2="276.2964" y2="309.5331">
					<stop  offset="0" style="stop-color:#4823E2"/>
					<stop  offset="1" style="stop-color:#00DDF4"/>
				</linearGradient>
				<path class="st4" d="M232,342c0.9-1,2.7-1.9,5.8-2.4c9.1-1.5,30.5-3.7,36.2-10.5c4.3-5.2,3.7-14.2-13.2-18.5
					c-16.9-4.3-43.6-1-54-6.4c-7.8-4.1-27.4-17.1-44.8-26c-5.9-3-22.9-15.4-50.5-9.3c-36.2,4.7-47.2-7.1-47.5-25.7l-18.4,34
					l11.9,48.9c0,0,24.5,14.5,28.8,25.9c8.7-0.6,19.7,22.5,26.4,24c-11-29.5,6.9-50.2,45.9-40.3C220.2,351.3,232,342,232,342z"/>
			</g>
			<g>
				<g>
					
						<linearGradient id="SVGID_6_" gradientUnits="userSpaceOnUse" x1="273.7108" y1="240.6451" x2="257.779" y2="309.8037" gradientTransform="matrix(-0.9995 3.088283e-02 -3.088283e-02 -0.9995 507.1764 444.9207)">
						<stop  offset="0" style="stop-color:#00F2FE"/>
						<stop  offset="1" style="stop-color:#534DDB"/>
					</linearGradient>
					<path class="st5" d="M231.1,129.2c0,0-26.1,0.4-49.1,53.2c-6.8,15.7-8.9,30.4,1,31.8c19.8,3,22.5-72.5,86.4-55.9
						c45.1-4.6,4.5-18,1.3-18.9c-3.2-0.9-24.5-17.5-24.5-17.5L231.1,129.2z"/>
					
						<linearGradient id="SVGID_7_" gradientUnits="userSpaceOnUse" x1="220.9424" y1="212.461" x2="206.0132" y2="277.2676" gradientTransform="matrix(-0.9958 9.113586e-02 -9.113586e-02 -0.9958 520.6229 428.5946)">
						<stop  offset="0" style="stop-color:#00F2FE"/>
						<stop  offset="1" style="stop-color:#534DDB"/>
					</linearGradient>
					<path class="st6" d="M280.2,159.1c0,0-26,2-45.8,56.1c-5.9,16.1-5.1,24.6,4.8,25.4c20,1.8,16.1-67.4,80.9-54.7
						c44.7-7.3,3.5-18.2,0.2-18.9c-3.3-0.7-25.5-16-25.5-16L280.2,159.1z"/>
					
						<linearGradient id="SVGID_8_" gradientUnits="userSpaceOnUse" x1="303.6236" y1="264.462" x2="289.6162" y2="325.2669" gradientTransform="matrix(-0.9922 -0.1243 0.1243 -0.9922 468.0052 482.9922)">
						<stop  offset="0" style="stop-color:#00F2FE"/>
						<stop  offset="1" style="stop-color:#534DDB"/>
					</linearGradient>
					<path class="st7" d="M202.5,127.1c0,0-17.4-5.9-37.5,19.2c-10.7,13.3-13.5,28.6-4,31.6c19.1,6,38-45.9,83.3-43.5
						c45.3,2.5,18-15.4,15-16.8s-37.6-4.4-37.6-4.4L202.5,127.1z"/>
					
						<linearGradient id="SVGID_9_" gradientUnits="userSpaceOnUse" x1="156.3222" y1="295.0232" x2="336.8307" y2="368.3697" gradientTransform="matrix(-1 0 0 -1 500 452.8085)">
						<stop  offset="0" style="stop-color:#534DDB"/>
						<stop  offset="1" style="stop-color:#00F2FE"/>
					</linearGradient>
					<path class="st8" d="M268,158c0,0-5.7-18.3-37.1-27.8c-31.3-9.5-56.1,18-74.3,12.5c-18.1-5.5,1.4-36.2,42.8-46.7
						s95.7,5.7,129.4,32.2c29.4,23.1,64.7,26.8,58.3-4.2c-6.4-31,25.7,25.8,25.7,27.3c0,1.4,0,21,0,21l-27.7,14.8l-39.6-6.2
						l-50.1-16.6L268,158z"/>
				</g>
				
					<linearGradient id="SVGID_10_" gradientUnits="userSpaceOnUse" x1="45.6154" y1="259.8346" x2="276.2964" y2="259.8346" gradientTransform="matrix(-1 0 0 -1 500 452.8085)">
					<stop  offset="0" style="stop-color:#534DDB"/>
					<stop  offset="1" style="stop-color:#00F2FE"/>
				</linearGradient>
				<path class="st9" d="M268,158c-0.9,1-2.7,1.9-5.8,2.4c-9.1,1.5-30.5,3.7-36.2,10.5c-4.3,5.2-3.7,14.2,13.2,18.5
					c16.9,4.3,43.6,1,54,6.4c7.8,4.1,27.4,17.1,44.8,26c5.9,3,22.9,15.4,50.5,9.3c36.2-4.7,49.7,7.6,47.5,25.7
					c3.8,21.7,18.4-34,18.4-34l-11.9-48.9c0,0-24.5-14.5-28.8-25.9c-8.7,0.6-19.7-22.5-26.4-24c11,29.5-6.9,50.2-45.9,40.3
					C279.8,148.7,268,158,268,158z"/>
			</g>
			<g>
				<linearGradient id="SVGID_11_" gradientUnits="userSpaceOnUse" x1="96.9466" y1="42.9798" x2="220.2351" y2="482.3929">
					<stop  offset="0" style="stop-color:#00C6F4"/>
					<stop  offset="1" style="stop-color:#3550D8"/>
				</linearGradient>
				<path class="st10" d="M233.4,478.1c0-22.8-14.8-43-36.6-49.5C119.9,405.7,63.9,334.4,63.9,250S119.9,94.3,196.8,71.3
					c21.8-6.5,36.6-26.7,36.6-49.5v0C115,30.4,21.6,129.2,21.6,250C21.6,370.8,115,469.6,233.4,478.1L233.4,478.1z"/>
				<linearGradient id="SVGID_12_" gradientUnits="userSpaceOnUse" x1="276.696" y1="6.6694" x2="399.9846" y2="446.0824">
					<stop  offset="0" style="stop-color:#00F2FE"/>
					<stop  offset="1" style="stop-color:#534DDB"/>
				</linearGradient>
				<path class="st11" d="M266.6,21.9L266.6,21.9c0,22.8,14.8,43,36.6,49.5c76.9,22.9,132.9,94.2,132.9,178.7
					s-56.1,155.7-132.9,178.7c-21.8,6.5-36.6,26.7-36.6,49.5v0C385,469.6,478.4,370.8,478.4,250C478.4,129.2,385,30.4,266.6,21.9z"
					/>
			</g>
		</g>
	</g>
</g>
<g id="Text">
</g>
</svg>
